name C:/MyDriveSym/Projects/mobilecap/Data\Session20210827_0002\mocap\ForceDataProcessed\walking3_forces.mot
datacolumns 19
datarows 14
range 0.33950000 0.34600000
endheader 
time	R_ground_force_vx	R_ground_force_vy	R_ground_force_vz	R_ground_force_px	R_ground_force_py	R_ground_force_pz	R_ground_torque_x	R_ground_torque_y	R_ground_torque_z	L_ground_force_vx	L_ground_force_vy	L_ground_force_vz	L_ground_force_px	L_ground_force_py	L_ground_force_pz	L_ground_torque_x	L_ground_torque_y	L_ground_torque_z	
          0.33950000	        -34.18973900	        507.15578500	        -30.14833100	          0.29268000	          0.00600000	         -0.18643500	          0.00000000	         -0.18054100	          0.00000000	          0.00000000	          0.00000000	          0.00000000	          0.69142600	          0.00000000	         -0.26826600	          0.00000000	          0.00000000	          0.00000000	
          0.34000000	        -34.01579800	        506.90489000	        -30.07476200	          0.29288200	          0.00600000	         -0.18645800	          0.00000000	         -0.19546700	          0.00000000	          0.00000000	          0.00000000	          0.00000000	          0.69142600	          0.00000000	         -0.26826600	          0.00000000	          0.00000000	          0.00000000	
          0.34050000	        -33.84235600	        506.65920200	        -30.00137000	          0.29308400	          0.00600000	         -0.18648200	          0.00000000	         -0.21046100	          0.00000000	          0.00000000	          0.00000000	          0.00000000	          0.69142600	          0.00000000	         -0.26826600	          0.00000000	          0.00000000	          0.00000000	
          0.34100000	        -33.66940600	        506.41872800	        -29.92815900	          0.29328600	          0.00600000	         -0.18650500	          0.00000000	         -0.22552200	          0.00000000	          0.00000000	          0.00000000	          0.00000000	          0.69142600	          0.00000000	         -0.26826600	          0.00000000	          0.00000000	          0.00000000	
          0.34150000	        -33.49694000	        506.18347100	        -29.85513100	          0.29348800	          0.00600000	         -0.18652900	          0.00000000	         -0.24065200	          0.00000000	          0.00000000	          0.00000000	          0.00000000	          0.69142600	          0.00000000	         -0.26826600	          0.00000000	          0.00000000	          0.00000000	
          0.34200000	        -33.32494800	        505.95343600	        -29.78229200	          0.29369000	          0.00600000	         -0.18655300	          0.00000000	         -0.25584900	          0.00000000	          0.00000000	          0.00000000	          0.00000000	          0.69142600	          0.00000000	         -0.26826600	          0.00000000	          0.00000000	          0.00000000	
          0.34250000	        -33.15342200	        505.72862800	        -29.70964400	          0.29389100	          0.00600000	         -0.18657800	          0.00000000	         -0.27111400	          0.00000000	          0.00000000	          0.00000000	          0.00000000	          0.69142600	          0.00000000	         -0.26826600	          0.00000000	          0.00000000	          0.00000000	
          0.34300000	        -32.98235400	        505.50905000	        -29.63718900	          0.29409300	          0.00600000	         -0.18660200	          0.00000000	         -0.28644700	          0.00000000	          0.00000000	          0.00000000	          0.00000000	          0.69142600	          0.00000000	         -0.26826600	          0.00000000	          0.00000000	          0.00000000	
          0.34350000	        -32.81173500	        505.29470600	        -29.56493300	          0.29429400	          0.00600000	         -0.18662700	          0.00000000	         -0.30184800	          0.00000000	          0.00000000	          0.00000000	          0.00000000	          0.69142600	          0.00000000	         -0.26826600	          0.00000000	          0.00000000	          0.00000000	
          0.34400000	        -32.64155800	        505.08559900	        -29.49287900	          0.29449600	          0.00600000	         -0.18665200	          0.00000000	         -0.31731600	          0.00000000	          0.00000000	          0.00000000	          0.00000000	          0.69142600	          0.00000000	         -0.26826600	          0.00000000	          0.00000000	          0.00000000	
          0.34450000	        -32.47181200	        504.88173200	        -29.42102900	          0.29469700	          0.00600000	         -0.18667700	          0.00000000	         -0.33285100	          0.00000000	          0.00000000	          0.00000000	          0.00000000	          0.69142600	          0.00000000	         -0.26826600	          0.00000000	          0.00000000	          0.00000000	
          0.34500000	        -32.30249000	        504.68310800	        -29.34938700	          0.29489800	          0.00600000	         -0.18670200	          0.00000000	         -0.34845400	          0.00000000	          0.00000000	          0.00000000	          0.00000000	          0.69142600	          0.00000000	         -0.26826600	          0.00000000	          0.00000000	          0.00000000	
          0.34550000	        -32.13358300	        504.48972800	        -29.27795800	          0.29509900	          0.00600000	         -0.18672800	          0.00000000	         -0.36412400	          0.00000000	          0.00000000	          0.00000000	          0.00000000	          0.69142600	          0.00000000	         -0.26826600	          0.00000000	          0.00000000	          0.00000000	
          0.34600000	        -31.96508200	        504.30159500	        -29.20674400	          0.29530000	          0.00600000	         -0.18675300	          0.00000000	         -0.37986100	          0.00000000	          0.00000000	          0.00000000	          0.00000000	          0.69142600	          0.00000000	         -0.26826600	          0.00000000	          0.00000000	          0.00000000	
